/* XPM */
static char *___________time_____[] = {
/* columns rows colors chars-per-pixel */
"16 16 2 1",
"  c #a5a5a5",
". c None",
/* pixels */
".....      .....",
"...          ...",
"..            ..",
".      .       .",
".      .       .",
"       .        ",
"       .        ",
"       ..       ",
"       ..       ",
"        ..      ",
"         ..     ",
".              .",
".              .",
"..            ..",
"...          ...",
".....      ....."
};
