/* XPM */
static char *icon[] = {
/* columns rows colors chars-per-pixel */
"128 128 2 1",
"  c #252525",
"D c #353535",
/* pixels */
"                                                                                                                                ",
"                                                                                                                                ",
"                                                                                                                                ",
"                                                                                                                                ",
"                                                                                                                                ",
"                                                                                                                                ",
"                                                                                                                                ",
"                                                                                                                                ",
"                                                                                                                                ",
"                                                                                                                                ",
"                                                                                                                                ",
"                                                                                                                                ",
"                                                                                                                                ",
"                                                                                                                                ",
"                                                                                                                                ",
"                                                                                                                                ",
"                                                            DDDDDDDD                                                            ",
"                                                           DDDDDDDDDD                                                           ",
"                                                          DDDDDDDDDDDD                                                          ",
"                                                         DDDDDDDDDDDDDD                                                         ",
"                                                        DDDDDDDDDDDDDDDD                                                        ",
"                                                        DDDDDDDDDDDDDDDD                                                        ",
"                                                        DDDDDDDDDDDDDDDD                                                        ",
"                                                        DDDDDDDDDDDDDDDD                                                        ",
"                                                        DDDDDDDDDDDDDDDD                                                        ",
"                                                        DDDDDDDDDDDDDDDD                                                        ",
"                                                        DDDDDDDDDDDDDDDD                                                        ",
"                                              DD        DDDDDDDDDDDDDDDD        DD                                              ",
"                                            DDDD        DDDDDDDDDDDDDDDD        DDDD                                            ",
"                                           DDDDD        DDDDDDDDDDDDDDDD        DDDDD                                           ",
"                                         DDDDDDD        DDDDDDDDDDDDDDDD        DDDDDDD                                         ",
"                                        DDDDDDDD        DDDDDDDDDDDDDDDD        DDDDDDDD                                        ",
"                                      DDDDDDDDDD        DDDDDDDDDDDDDDDD        DDDDDDDDDD                                      ",
"                                     DDDDDDDDDDD        DDDDDDDDDDDDDDDD        DDDDDDDDDDD                                     ",
"                                    DDDDDDDDDDDD        DDDDDDDDDDDDDDDD        DDDDDDDDDDDD                                    ",
"                                   DDDDDDDDDDDDD        DDDDDDDDDDDDDDDD        DDDDDDDDDDDDD                                   ",
"                                  DDDDDDDDDDDDDD        DDDDDDDDDDDDDDDD        DDDDDDDDDDDDDD                                  ",
"                                 DDDDDDDDDDDDDDD        DDDDDDDDDDDDDDDD        DDDDDDDDDDDDDDD                                 ",
"                                DDDDDDDDDDDDDDDD        DDDDDDDDDDDDDDDD        DDDDDDDDDDDDDDDD                                ",
"                                DDDDDDDDDDDDDDDD        DDDDDDDDDDDDDDDD        DDDDDDDDDDDDDDDD                                ",
"                               DDDDDDDDDDDDDDDDD        DDDDDDDDDDDDDDDD        DDDDDDDDDDDDDDDDD                               ",
"                              DDDDDDDDDDDDDDDDDD        DDDDDDDDDDDDDDDD        DDDDDDDDDDDDDDDDDD                              ",
"                              DDDDDDDDDDDDDDDDDD        DDDDDDDDDDDDDDDD        DDDDDDDDDDDDDDDDDD                              ",
"                             DDDDDDDDDDDDDDDDDDD        DDDDDDDDDDDDDDDD        DDDDDDDDDDDDDDDDDDD                             ",
"                            DDDDDDDDDDDDDDDDDDDD        DDDDDDDDDDDDDDDD        DDDDDDDDDDDDDDDDDDDD                            ",
"                            DDDDDDDDDDDDDDDDDDDD        DDDDDDDDDDDDDDDD        DDDDDDDDDDDDDDDDDDDD                            ",
"                           DDDDDDDDDDDDDDDDDDDDD        DDDDDDDDDDDDDDDD        DDDDDDDDDDDDDDDDDDDDD                           ",
"                           DDDDDDDDDDDDDDDDDDDD         DDDDDDDDDDDDDDDD         DDDDDDDDDDDDDDDDDDDD                           ",
"                          DDDDDDDDDDDDDDDDDDDD          DDDDDDDDDDDDDDDD          DDDDDDDDDDDDDDDDDDDD                          ",
"                          DDDDDDDDDDDDDDDDDDDD          DDDDDDDDDDDDDDDD          DDDDDDDDDDDDDDDDDDDD                          ",
"                          DDDDDDDDDDDDDDDDDDD           DDDDDDDDDDDDDDDD           DDDDDDDDDDDDDDDDDDD                          ",
"                         DDDDDDDDDDDDDDDDDDD            DDDDDDDDDDDDDDDD            DDDDDDDDDDDDDDDDDDD                         ",
"                         DDDDDDDDDDDDDDDDDDD            DDDDDDDDDDDDDDDD            DDDDDDDDDDDDDDDDDDD                         ",
"                         DDDDDDDDDDDDDDDDDD             DDDDDDDDDDDDDDDD             DDDDDDDDDDDDDDDDDD                         ",
"                         DDDDDDDDDDDDDDDDDD             DDDDDDDDDDDDDDDD             DDDDDDDDDDDDDDDDDD                         ",
"                        DDDDDDDDDDDDDDDDDD              DDDDDDDDDDDDDDDD              DDDDDDDDDDDDDDDDDD                        ",
"                        DDDDDDDDDDDDDDDDDD              DDDDDDDDDDDDDDDD              DDDDDDDDDDDDDDDDDD                        ",
"                        DDDDDDDDDDDDDDDDD               DDDDDDDDDDDDDDDD               DDDDDDDDDDDDDDDDD                        ",
"                        DDDDDDDDDDDDDDDDD               DDDDDDDDDDDDDDDD               DDDDDDDDDDDDDDDDD                        ",
"                        DDDDDDDDDDDDDDDDD               DDDDDDDDDDDDDDDD               DDDDDDDDDDDDDDDDD                        ",
"                        DDDDDDDDDDDDDDDDD                DDDDDDDDDDDDDD                DDDDDDDDDDDDDDDDD                        ",
"                        DDDDDDDDDDDDDDDDD                 DDDDDDDDDDDD                 DDDDDDDDDDDDDDDDD                        ",
"                        DDDDDDDDDDDDDDDDD                  DDDDDDDDDD                  DDDDDDDDDDDDDDDDD                        ",
"                        DDDDDDDDDDDDDDDDD                   DDDDDDDD                   DDDDDDDDDDDDDDDDD                        ",
"                        DDDDDDDDDDDDDDDDD                                              DDDDDDDDDDDDDDDDD                        ",
"                        DDDDDDDDDDDDDDDDD                                              DDDDDDDDDDDDDDDDD                        ",
"                        DDDDDDDDDDDDDDDDD                                              DDDDDDDDDDDDDDDDD                        ",
"                        DDDDDDDDDDDDDDDDD                                              DDDDDDDDDDDDDDDDD                        ",
"                        DDDDDDDDDDDDDDDDD                                              DDDDDDDDDDDDDDDDD                        ",
"                        DDDDDDDDDDDDDDDDD                                              DDDDDDDDDDDDDDDDD                        ",
"                        DDDDDDDDDDDDDDDDD                                              DDDDDDDDDDDDDDDDD                        ",
"                        DDDDDDDDDDDDDDDDDD                                            DDDDDDDDDDDDDDDDDD                        ",
"                        DDDDDDDDDDDDDDDDDD                                            DDDDDDDDDDDDDDDDDD                        ",
"                         DDDDDDDDDDDDDDDDDD                                          DDDDDDDDDDDDDDDDDD                         ",
"                         DDDDDDDDDDDDDDDDDD                                          DDDDDDDDDDDDDDDDDD                         ",
"                         DDDDDDDDDDDDDDDDDDD                                        DDDDDDDDDDDDDDDDDDD                         ",
"                         DDDDDDDDDDDDDDDDDDD                                        DDDDDDDDDDDDDDDDDDD                         ",
"                          DDDDDDDDDDDDDDDDDDD                                      DDDDDDDDDDDDDDDDDDD                          ",
"                          DDDDDDDDDDDDDDDDDDDD                                    DDDDDDDDDDDDDDDDDDDD                          ",
"                           DDDDDDDDDDDDDDDDDDDD                                  DDDDDDDDDDDDDDDDDDDD                           ",
"                           DDDDDDDDDDDDDDDDDDDD                                  DDDDDDDDDDDDDDDDDDDD                           ",
"                           DDDDDDDDDDDDDDDDDDDDDD                              DDDDDDDDDDDDDDDDDDDDDD                           ",
"                            DDDDDDDDDDDDDDDDDDDDDD                            DDDDDDDDDDDDDDDDDDDDDD                            ",
"                            DDDDDDDDDDDDDDDDDDDDDDD                          DDDDDDDDDDDDDDDDDDDDDDD                            ",
"                             DDDDDDDDDDDDDDDDDDDDDDDD                      DDDDDDDDDDDDDDDDDDDDDDDD                             ",
"                              DDDDDDDDDDDDDDDDDDDDDDDDD                  DDDDDDDDDDDDDDDDDDDDDDDDD                              ",
"                              DDDDDDDDDDDDDDDDDDDDDDDDDDD              DDDDDDDDDDDDDDDDDDDDDDDDDDD                              ",
"                               DDDDDDDDDDDDDDDDDDDDDDDDDDDDDDDD  DDDDDDDDDDDDDDDDDDDDDDDDDDDDDDDD                               ",
"                                DDDDDDDDDDDDDDDDDDDDDDDDDDDDDDDDDDDDDDDDDDDDDDDDDDDDDDDDDDDDDDDD                                ",
"                                DDDDDDDDDDDDDDDDDDDDDDDDDDDDDDDDDDDDDDDDDDDDDDDDDDDDDDDDDDDDDDDD                                ",
"                                 DDDDDDDDDDDDDDDDDDDDDDDDDDDDDDDDDDDDDDDDDDDDDDDDDDDDDDDDDDDDDD                                 ",
"                                  DDDDDDDDDDDDDDDDDDDDDDDDDDDDDDDDDDDDDDDDDDDDDDDDDDDDDDDDDDDD                                  ",
"                                   DDDDDDDDDDDDDDDDDDDDDDDDDDDDDDDDDDDDDDDDDDDDDDDDDDDDDDDDDD                                   ",
"                                    DDDDDDDDDDDDDDDDDDDDDDDDDDDDDDDDDDDDDDDDDDDDDDDDDDDDDDDD                                    ",
"                                     DDDDDDDDDDDDDDDDDDDDDDDDDDDDDDDDDDDDDDDDDDDDDDDDDDDDDD                                     ",
"                                       DDDDDDDDDDDDDDDDDDDDDDDDDDDDDDDDDDDDDDDDDDDDDDDDDD                                       ",
"                                        DDDDDDDDDDDDDDDDDDDDDDDDDDDDDDDDDDDDDDDDDDDDDDDD                                        ",
"                                         DDDDDDDDDDDDDDDDDDDDDDDDDDDDDDDDDDDDDDDDDDDDDD                                         ",
"                                           DDDDDDDDDDDDDDDDDDDDDDDDDDDDDDDDDDDDDDDDDD                                           ",
"                                            DDDDDDDDDDDDDDDDDDDDDDDDDDDDDDDDDDDDDDDD                                            ",
"                                              DDDDDDDDDDDDDDDDDDDDDDDDDDDDDDDDDDDD                                              ",
"                                                 DDDDDDDDDDDDDDDDDDDDDDDDDDDDDD                                                 ",
"                                                   DDDDDDDDDDDDDDDDDDDDDDDDDD                                                   ",
"                                                       DDDDDDDDDDDDDDDDDD                                                       ",
"                                                                                                                                ",
"                                                                                                                                ",
"                                                                                                                                ",
"                                                                                                                                ",
"                                                                                                                                ",
"                                                                                                                                ",
"                                                                                                                                ",
"                                                                                                                                ",
"                                                                                                                                ",
"                                                                                                                                ",
"                                                                                                                                ",
"                                                                                                                                ",
"                                                                                                                                ",
"                                                                                                                                ",
"                                                                                                                                ",
"                                                                                                                                ",
"                                                                                                                                ",
"                                                                                                                                ",
"                                                                                                                                ",
"                                                                                                                                ",
"                                                                                                                                ",
"                                                                                                                                ",
"                                                                                                                                ",
"                                                                                                                                "
};
